<svg height="128" viewBox="0 0 1163 1024" width="145.375" xmlns="http://www.w3.org/2000/svg"><path d="m917.806545 788.549818-385.861818-177.640727c-9.541818-4.770909-13.381818-16.244364-9.541818-25.786182l214.877091-465.128727c4.794182-9.541818 16.244364-13.358545 25.786182-9.541818l385.861818 178.594909c9.541818 4.770909 13.358545 16.244364 9.541818 25.786182l-215.831273 465.128727c-3.84 9.541818-15.290182 13.381818-24.832 8.610909z" fill="#f4f5ff"/><path d="m925.44 795.229091c-2.862545 0-6.679273-.930909-9.541818-1.885091l-17.221818-7.656727 3.84-8.610909 17.198545 7.68a12.101818 12.101818 0 0 0 5.725091.930909l.930909 9.541818zm21.015273-11.450182-8.610909-4.770909s0-.954182.954181-.954182l7.656728-15.290182 8.610909 3.816728-7.68 15.290181c0 .954182-.930909.954182-.930909 1.908364zm-65.908364-6.679273-17.198545-7.633454 3.84-8.610909 17.175272 7.656727zm-34.373818-16.244363-17.198546-7.633455 3.816728-8.610909 17.198545 7.656727-3.816727 8.610909zm116.503273-12.404364-8.587637-3.816727 7.633455-17.221818 8.610909 3.84zm-150.900364-2.862545-17.175273-7.656728 3.816728-8.610909 17.175272 7.68zm-34.373818-16.244364-17.198546-7.633455 3.816728-8.610909 17.221818 7.656728zm201.541818-15.290182-8.610909-3.816727 7.633454-17.198546 8.61091 3.84-7.656728 17.175273zm-236.869818-.930909-17.221818-7.68 3.84-8.564364 17.198545 7.633455zm-34.397091-16.244364-17.198546-7.656727 3.84-8.610909 17.175273 7.68zm-34.373818-15.290181-17.198546-7.633455 3.816728-8.610909 17.198545 7.656727zm320.907636-1.908364-8.610909-3.816727 7.656727-17.198546 8.587637 3.816728zm-356.258909-14.336-17.175273-7.633455 3.816728-8.610909 17.175272 7.656728-3.816727 8.610909zm-34.373818-16.221091-17.198546-7.656727 3.816728-8.587637 17.221818 7.633455zm406.853818-4.794182-8.587636-3.816727 7.633454-17.175273 8.610909 3.816728zm-441.250909-11.450182-17.175273-7.633454 3.816727-8.610909 17.198546 7.656727-3.816727 8.587636zm-35.328-16.244363-4.770909-1.908364a26.112 26.112 0 0 1 -12.427637-12.404363l8.61091-3.816728c.930909 2.862545 3.816727 5.725091 7.633454 7.633455l4.770909 1.908363-3.816727 8.61091zm492.823273-6.679273-8.610909-3.816727 7.656727-17.198546 8.610909 3.816728-7.656727 17.221818zm-498.548364-25.786182-8.610909-3.816727 7.656727-17.198545 8.610909 3.816727-7.68 17.198545zm514.792727-8.610909-8.610909-3.793454 7.656727-17.221819 8.587637 3.84-7.633455 17.198546zm-498.571636-25.739636-8.610909-3.816727 7.633454-17.221819 8.610909 3.84zm514.792727-9.541818-8.610909-3.84 7.633455-17.198546 8.610909 3.84-7.656728 17.175273zm-498.571636-24.855273-8.610909-4.770909 7.68-17.198546 8.564363 3.84-7.633454 18.152728zm513.838545-9.541818-8.610909-3.816728 7.656727-17.198545 8.61091 3.816727-7.68 17.198546zm-498.548363-25.786182-8.610909-3.816727 7.656727-17.198546 8.610909 3.816727-7.68 17.198546zm514.792727-8.610909-8.610909-3.816727 7.656727-17.175273 8.587636 3.816727-7.633454 17.198546zm-498.548364-25.809455-8.587636-3.816727 7.633454-17.175273 8.61091 3.816728zm514.792728-9.541818-8.61091-3.816727 7.68-17.198546 8.587637 3.816728-7.656727 17.221818zm-498.548364-24.832-8.610909-4.770909 7.68-17.198545 8.564363 3.816727zm514.792727-9.541818-8.610909-3.816727 7.656727-17.221819 8.610909 3.84-7.68 17.198546zm-498.548363-25.786182-8.61091-3.84 7.656728-17.175273 8.610909 3.816728-7.68 17.198545zm513.815272-8.610909-8.587636-3.816727 7.633454-17.198546 8.61091 3.84zm-498.548363-25.786182-8.587637-3.816727 7.633455-17.198546 8.610909 3.84zm514.792727-8.610909-8.610909-3.793454 7.68-17.198546 9.541818 2.862546c0 .954182 0 .954182-.977455 1.908363l-7.633454 16.244364zm-498.548364-25.762909-8.610909-4.770909 7.656727-17.198546 8.61091 3.816728zm496.64-9.541818c-.930909-1.931636-3.816727-3.84-5.725091-4.794182l-8.610909-3.816727 3.84-8.610909 8.587637 3.84c3.816727 1.908364 6.679273 4.770909 9.541818 7.633454l-7.633455 5.725091zm-31.511272-16.244364-17.198546-7.656727 3.816727-8.587636 17.198546 7.656727zm-448.884364-9.541818-8.610909-3.84 7.656727-17.175273 8.587636 3.816728-7.633454 17.175272zm413.556364-6.702545-17.221819-7.633455 3.84-8.610909 17.198546 7.656727-3.84 8.610909zm-34.397091-16.221091-17.198546-7.656728 3.816727-8.610909 17.221819 7.68zm-362.938182-11.473455-8.587637-3.816727 7.633455-17.198546 8.610909 3.816728-7.656727 17.221818zm328.564363-3.816727-17.221818-7.633455 3.84-8.610909 17.198546 7.656727zm-35.351272-16.244364-17.198546-7.633454 3.84-8.610909 17.175273 7.656727-3.816727 8.610909zm-276.968728-14.312727-8.610909-3.84 7.656728-17.175273 8.610909 3.816727zm242.59491-1.908364-17.198546-7.656727 3.816727-8.587636 17.198546 7.633454zm-34.397091-16.244363-17.175273-7.633455 3.816727-8.610909 17.198546 7.656727zm-35.328-16.244364-17.198546-7.633455 3.816727-8.610909 17.221819 7.656728-3.84 8.610909zm-157.579637-.930909-8.610909-3.84 7.656727-17.198546 8.587637 3.84-7.633455 17.175273zm123.205818-14.336-17.221818-7.656727 3.84-8.587637 17.198546 7.633455zm-34.39709-16.244364-17.175273-7.633454 3.816727-8.610909 17.175273 7.656727zm-72.587637-3.816727-8.610909-3.816727 5.748364-11.473455c.954182-2.862545 2.862545-4.770909 4.770909-6.679273l6.702545 6.679273c-.954182.954182-1.908364 2.862545-2.862545 3.816727zm37.236364-12.427636-13.358546-5.725091c-.930909 0-1.908364-.930909-2.862545-.930909l1.908364-9.565091c1.908364 0 3.816727.930909 5.72509 1.908363l13.381819 5.725091-4.770909 8.610909z" fill="#979797"/><path d="m623.639273 457.146182 148.014545-86.923637c18.152727-10.496 41.076364 1.908364 41.076364 22.923637l1.908363 92.648727c0 5.725091 4.794182 11.473455 11.473455 11.473455l47.755636-13.381819c13.358545 0 24.832 9.541818 26.740364 22.923637l10.496 85.946182c.954182 5.748364-4.770909 9.541818-9.541818 7.656727l-276.968727-133.725091c-3.816727-1.908364-3.816727-6.679273-.954182-9.541818zm307.898182-12.730182a32.465455 32.465455 0 1 0 38.074181-52.619636 32.465455 32.465455 0 1 0 -38.097454 52.596363z" fill="#fff"/><path d="m835.653818 804.794182-582.586182 105.053091a18.618182 18.618182 0 0 1 -21.969454-15.266909l-127.022546-701.044364a18.618182 18.618182 0 0 1 15.266909-21.969455l582.609455-105.05309a18.618182 18.618182 0 0 1 21.969455 15.290181l126.068363 700.066909a18.292364 18.292364 0 0 1 -14.336 22.923637z" fill="#ccc"/><path d="m797.463273 766.603636-582.609455 105.029819a18.618182 18.618182 0 0 1 -21.969454-15.290182l-127.022546-700.997818a18.618182 18.618182 0 0 1 15.290182-21.969455l582.586182-105.053091a18.618182 18.618182 0 0 1 21.969454 15.266909l126.068364 700.090182a18.292364 18.292364 0 0 1 -14.312727 22.900364z" fill="#fff"/><path d="m252.113455 624.290909 87.854545-204.404364c10.519273-24.832 43.938909-28.625455 60.183273-7.633454l72.587636 95.511273c4.770909 6.679273 13.358545 7.633455 20.037818 2.862545l40.122182-49.664c13.381818-10.496 32.465455-8.610909 44.893091 2.862546l76.404364 82.152727c4.770909 4.770909 2.862545 13.358545-4.770909 15.266909l-390.632728 70.679273c-4.770909 1.908364-8.610909-2.862545-6.679272-7.633455zm271.243636-290.350545a42.030545 42.030545 0 1 1 84.037818 0 42.030545 42.030545 0 0 1 -84.037818 0z" fill="#f4f5ff"/><path d="m795.392 755.130182c3.816727-.698182 6.213818-4.514909 4.933818-9.402182l-126.068363-700.043636a7.028364 7.028364 0 0 0 -8.448-5.911273l-582.586182 105.053091a7.005091 7.005091 0 0 0 -5.911273 8.448l127.022545 701.021091a7.005091 7.005091 0 0 0 8.448 5.911272zm4.142545 22.900363-582.586181 105.076364a30.254545 30.254545 0 0 1 -35.514182-24.669091l-127.022546-701.021091a30.254545 30.254545 0 0 1 24.669091-35.490909l582.586182-105.053091a30.254545 30.254545 0 0 1 35.490909 24.669091l125.858909 699.066182c4.654545 17.035636-6.213818 34.280727-23.482182 37.422545zm-287.813818-444.066909a53.666909 53.666909 0 1 1 107.310546 0 53.666909 53.666909 0 0 1 -107.310546 0zm23.272728 0a30.394182 30.394182 0 1 0 60.76509 0 30.394182 30.394182 0 0 0 -60.76509 0zm107.682909 216.738909-72.773819-78.289454c-8.308364-7.68-20.433455-8.843636-28.858181-2.978909l-39.214546 48.523636-2.280727 2.164364c-11.892364 8.494545-27.741091 6.376727-36.072727-5.282909l-72.541091-95.441455c-10.938182-14.126545-33.28-11.403636-40.261818 5.12l-83.456 194.094546zm-401.384728 69.28291.116364-.279273 87.854545-204.334546c13.917091-32.907636 58.344727-38.353455 80.151273-10.123636l72.773818 95.767273c.698182.954182 1.629091 1.256727 2.792728.768l38.865454-48.104728 1.861818-1.861818c17.733818-13.893818 43.194182-12.008727 60.602182 4.119273l76.101818 81.826909c11.403636 11.380364 5.957818 30.766545-10.938181 34.955636l-389.701819 70.516364c-14.196364 4.538182-25.832727-9.821091-20.48-23.249454z" fill="#979797"/><path d="m428.8 984.343273c0 17.92 85.085091 32.488727 190.045091 32.488727s190.068364-14.545455 190.068364-32.488727c0-17.92-85.085091-32.465455-190.045091-32.465455s-190.068364 14.545455-190.068364 32.465455z" fill="#e7ebf3"/><path d="m43.892364 765.626182v19.106909a7.540364 7.540364 0 0 1 -7.633455 7.633454h-1.908364c-3.816727-.930909-6.679273-3.816727-6.679272-7.633454v-19.083636h-19.106909a7.540364 7.540364 0 0 1 -7.633455-7.656728v-.954182c0-3.816727 2.862545-7.633455 7.633455-7.633454h19.083636v-18.152727c0-3.816727 2.885818-7.633455 7.656727-7.633455h.954182c3.816727 0 7.633455 2.862545 7.633455 7.633455v18.152727h18.152727c3.816727 0 7.633455 2.862545 7.633454 7.633454v.954182a7.540364 7.540364 0 0 1 -7.633454 7.633455zm1005.707636-647.540364v10.519273c0 2.862545-1.908364 4.770909-4.770909 4.770909h-.954182c-2.862545.930909-4.794182-1.908364-4.794182-3.816727v-11.473455h-11.450182c-2.862545 0-4.770909-1.908364-4.770909-4.770909v-.954182c0-2.862545 1.908364-4.770909 4.770909-4.770909h11.450182v-11.473454c0-2.862545 1.931636-4.770909 4.794182-4.770909h.930909c2.885818 0 4.794182 1.908364 4.794182 4.770909v11.473454h10.496c2.862545 0 4.794182 1.908364 4.794182 4.770909v.954182c0 2.862545-2.885818 4.770909-4.794182 4.770909z" fill="#979797"/></svg>