<svg viewBox="0 0 1024 1024" xmlns="http://www.w3.org/2000/svg"><path d="m774.144 839.68c-.683008 36.864-13.483008 67.755008-38.4 92.672s-55.808 37.716992-92.672 38.4h-458.752c-36.864-.683008-67.755008-13.483008-92.672-38.4s-37.716992-55.808-38.4-92.672v-458.752c.683008-36.864 13.483008-67.755008 38.4-92.672s55.808-37.716992 92.672-38.4v65.536c-18.432.683008-33.792 7.168-46.08 19.456s-18.772992 27.648-19.456 46.08v458.752c.683008 18.432 7.168 33.792 19.456 46.08s27.648 18.772992 46.08 19.456h458.752c18.432-.683008 33.792-7.168 46.08-19.456s18.772992-27.648 19.456-46.08zm-393.216-720.896c-18.432.683008-33.792 7.168-46.08 19.456s-18.772992 27.648-19.456 46.08v458.752c.683008 18.432 7.168 33.792 19.456 46.08s27.648 18.772992 46.08 19.456h458.752c18.432-.683008 33.792-7.168 46.08-19.456s18.772992-27.648 19.456-46.08v-458.752c-.683008-18.432-7.168-33.792-19.456-46.08s-27.648-18.772992-46.08-19.456zm0-65.536h458.752c36.864.683008 67.755008 13.483008 92.672 38.4s37.716992 55.808 38.4 92.672v458.752c-.683008 36.864-13.483008 67.755008-38.4 92.672s-55.808 37.716992-92.672 38.4h-458.752c-36.864-.683008-67.755008-13.483008-92.672-38.4s-37.716992-55.808-38.4-92.672v-458.752c.683008-36.864 13.483008-67.755008 38.4-92.672s55.808-37.716992 92.672-38.4z"/></svg>