<svg viewBox="0 0 1024 1024" xmlns="http://www.w3.org/2000/svg"><path d="m853.333333 682.666667a42.666667 42.666667 0 0 1 42.368 37.674666l.298667 4.992v85.333334a128 128 0 0 1 -120.490667 127.786666l-7.509333.213334h-512a128 128 0 0 1 -127.786667-120.490667l-.213333-7.509333v-85.333334a42.666667 42.666667 0 0 1 85.034667-4.992l.298666 4.992v85.333334a42.666667 42.666667 0 0 0 37.674667 42.368l4.992.298666h512a42.666667 42.666667 0 0 0 42.368-37.674666l.298667-4.992v-85.333334a42.666667 42.666667 0 0 1 42.666666-42.666666z"/><path d="m268.501333 439.168a42.666667 42.666667 0 0 1 56.32-3.541333l4.010667 3.541333 183.168 183.125333 183.168-183.125333a42.666667 42.666667 0 0 1 56.32-3.541333l4.010667 3.541333a42.666667 42.666667 0 0 1 3.541333 56.32l-3.541333 4.010667-213.333334 213.333333a42.666667 42.666667 0 0 1 -56.32 3.541333l-4.010666-3.541333-213.333334-213.333333a42.666667 42.666667 0 0 1 0-60.330667z"/><path d="m512 128a42.666667 42.666667 0 0 1 42.368 37.674667l.298667 4.992v512a42.666667 42.666667 0 0 1 -85.034667 4.992l-.298667-4.992v-512a42.666667 42.666667 0 0 1 42.666667-42.666667z"/></svg>
