<svg height="200" viewBox="0 0 1024 1024" width="200" xmlns="http://www.w3.org/2000/svg"><g><path d="m447.325002 129.919978c-178.868807 0-323.872319 145.003512-323.872319 323.874365s145.003512 323.874365 323.872319 323.874365c178.870854 0 323.874365-145.003512 323.874365-323.874365s-145.003512-323.874365-323.874365-323.874365zm0 583.792093c-143.31915 0-259.915681-116.598578-259.915681-259.917728s116.596532-259.917728 259.915681-259.917728 259.917728 116.598578 259.917728 259.917728-116.599602 259.917728-259.917728 259.917728z"/><path d="m891.573945 840.061734-143.337569-143.362128c-13.43601 16.625656-28.371164 31.91385-44.338834 46.099944l142.458549 142.481062c6.246261 6.246261 14.427594 9.368368 22.60995 9.368368s16.363689-3.123131 22.60995-9.368368c12.489453-12.491499 12.489453-32.727379-.002046-45.218878z"/></g></svg>
