<svg viewBox="0 0 1024 1024" xmlns="http://www.w3.org/2000/svg"><path d="m768 938.666667h-512c-72.533333 0-128-55.466667-128-128v-85.333334c0-25.6 17.066667-42.666667 42.666667-42.666666s42.666667 17.066667 42.666666 42.666666v85.333334c0 25.6 17.066667 42.666667 42.666667 42.666666h512c25.6 0 42.666667-17.066667 42.666667-42.666666v-85.333334c0-25.6 17.066667-42.666667 42.666666-42.666666s42.666667 17.066667 42.666667 42.666666v85.333334c0 72.533333-55.466667 128-128 128zm-42.666667-512c-12.8 0-21.333333-4.266667-29.866666-12.8l-183.466667-183.466667-183.466667 183.466667c-17.066667 17.066667-42.666667 17.066667-59.733333 0s-17.066667-42.666667 0-59.733334l213.333333-213.333333c17.066667-17.066667 42.666667-17.066667 59.733334 0l213.333333 213.333333c17.066667 17.066667 17.066667 42.666667 0 59.733334-8.533333 8.533333-17.066667 12.8-29.866667 12.8z"/><path d="m512 725.333333c-25.6 0-42.666667-17.066667-42.666667-42.666666v-512c0-25.6 17.066667-42.666667 42.666667-42.666667s42.666667 17.066667 42.666667 42.666667v512c0 25.6-17.066667 42.666667-42.666667 42.666666z"/></svg>